<svg xmlns="http://www.w3.org/2000/svg" width="446.887" height="446.887" style="enable-background:new 0 0 446.887 446.887" xml:space="preserve"><path d="M432.398 55.038H201.164V15.479c0-8.548-6.93-15.479-15.479-15.479H92.802c-8.548 0-15.479 6.93-15.479 15.479v39.559H14.489c-5.699 0-10.319 4.621-10.319 10.319v44.887c0 5.699 4.62 10.319 10.319 10.319h62.835v258.828H24.865c-5.699 0-10.321 4.619-10.321 10.318v46.857c0 5.699 4.622 10.32 10.321 10.32h397.159c5.699 0 10.318-4.621 10.318-10.32v-46.857c0-5.699-4.619-10.318-10.318-10.318h-220.86V120.564h150.65v46.866c-11.645 4.23-19.984 15.404-19.984 28.491s8.34 24.261 19.984 28.491v23.998c0 1.313-.242 1.908-5.311 5.68-7.338 5.459-18.426 13.709-18.426 34.566 0 18.776 15.277 34.054 34.055 34.054 12.875 0 24.506-7.129 30.354-18.604 2.588-5.078.57-11.293-4.508-13.881-5.074-2.584-11.291-.568-13.879 4.51a13.381 13.381 0 0 1-11.967 7.338c-7.398 0-13.414-6.019-13.414-13.416 0-10.488 4.02-13.479 10.104-18.008 5.752-4.279 13.629-10.14 13.629-22.236v-23.998c11.643-4.23 19.982-15.404 19.982-28.492 0-13.087-8.342-24.261-19.982-28.491v-46.867h59.945c5.699 0 10.32-4.621 10.32-10.319V65.358c.003-5.699-4.618-10.32-10.318-10.32zm-324.117 68.087 49.529 46.128-49.529 46.129v-92.257zm12.395 123.018 49.53-46.13v92.263l-49.53-46.133zm37.134 76.894-49.529 46.133v-92.266l49.529 46.133zM120.678 92.365l49.528-46.126v92.253l-49.528-46.127zm20.511-61.406-32.908 30.647V30.959h32.908zM24.807 99.925V75.676h52.517v24.249H24.807zM142.73 379.391l27.477-25.592v25.592H142.73zM422.08 99.925H201.164V75.676H422.08v24.249z"/></svg>