<?xml version="1.0" encoding="iso-8859-1"?>
<!-- Generator: Adobe Illustrator 16.0.0, SVG Export Plug-In . SVG Version: 6.00 Build 0)  -->
<!DOCTYPE svg PUBLIC "-//W3C//DTD SVG 1.1//EN" "http://www.w3.org/Graphics/SVG/1.1/DTD/svg11.dtd">
<svg version="1.1" id="Capa_1" xmlns="http://www.w3.org/2000/svg" xmlns:xlink="http://www.w3.org/1999/xlink" x="0px" y="0px"
	 width="446.887px" height="446.887px" viewBox="0 0 446.887 446.887" style="enable-background:new 0 0 446.887 446.887;"
	 xml:space="preserve">
<g>
	<path d="M432.398,55.038H201.164V15.479c0-8.548-6.93-15.479-15.479-15.479H92.802c-8.548,0-15.479,6.93-15.479,15.479v39.559
		H14.489c-5.699,0-10.319,4.621-10.319,10.319v44.887c0,5.699,4.62,10.319,10.319,10.319h62.835v258.828H24.865
		c-5.699,0-10.321,4.619-10.321,10.318v46.857c0,5.699,4.622,10.32,10.321,10.32h397.159c5.699,0,10.318-4.621,10.318-10.32v-46.857
		c0-5.699-4.619-10.318-10.318-10.318H201.164V120.564h150.65v46.866c-11.645,4.23-19.984,15.404-19.984,28.491
		s8.34,24.261,19.984,28.491v23.998c0,1.313-0.242,1.908-5.311,5.68c-7.338,5.459-18.426,13.709-18.426,34.566
		c0,18.776,15.277,34.054,34.055,34.054c12.875,0,24.506-7.129,30.354-18.604c2.588-5.078,0.57-11.293-4.508-13.881
		c-5.074-2.584-11.291-0.568-13.879,4.51c-2.309,4.526-6.895,7.338-11.967,7.338c-7.398,0-13.414-6.019-13.414-13.416
		c0-10.488,4.02-13.479,10.104-18.008c5.752-4.279,13.629-10.14,13.629-22.236v-23.998c11.643-4.23,19.982-15.404,19.982-28.492
		c0-13.087-8.342-24.261-19.982-28.491v-46.867h59.945c5.699,0,10.32-4.621,10.32-10.319V65.358
		C442.719,59.659,438.098,55.038,432.398,55.038z M108.281,123.125l49.529,46.128l-49.529,46.129V123.125z M120.676,246.143
		l49.53-46.13v92.263L120.676,246.143z M157.81,323.037l-49.529,46.133v-92.266L157.81,323.037z M120.678,92.365l49.528-46.126
		v92.253L120.678,92.365z M141.189,30.959l-32.908,30.647V30.959H141.189z M24.807,99.925V75.676h52.517v24.249H24.807z
		 M142.73,379.391l27.477-25.592v25.592H142.73z M422.08,99.925H201.164V75.676H422.08V99.925z"/>
</g>
<g>
</g>
<g>
</g>
<g>
</g>
<g>
</g>
<g>
</g>
<g>
</g>
<g>
</g>
<g>
</g>
<g>
</g>
<g>
</g>
<g>
</g>
<g>
</g>
<g>
</g>
<g>
</g>
<g>
</g>
</svg>
