<svg xmlns="http://www.w3.org/2000/svg" height="525px" width="525px"><path d="M270.889,7.072c-7.683-9.435-22.104-9.425-29.778,0C188.88,71.214,66.464,237.176,66.464,322.464 C66.464,426.974,151.49,512,256,512s189.537-85.026,189.537-189.537C445.537,237.147,322.549,70.511,270.889,7.072z M146.169,341.651c-10.6-0.008-19.187-8.589-19.187-19.187c0-6.528,1.773-21.674,13.646-49.772 c4.127-9.768,15.391-14.34,25.159-10.213c9.768,4.128,14.34,15.391,10.213,25.159c-10.483,24.81-10.618,34.728-10.618,34.825 c-0.014,10.595-8.607,19.187-19.2,19.187C146.176,341.651,146.172,341.651,146.169,341.651z M256,451.483 c-41.992,0-81.504-20.595-105.694-55.092c-6.088-8.682-3.986-20.657,4.696-26.745s20.656-3.985,26.743,4.696 c17.01,24.258,44.768,38.74,74.254,38.74c10.604,0,19.2,8.597,19.2,19.2C275.2,442.886,266.604,451.483,256,451.483z"/></svg>