<svg xmlns="http://www.w3.org/2000/svg" width="33" height="33"><path d="M27.96 31.375H5.414a5.728 5.728 0 0 1-4.7-2.464c.14 2.481 2.184 4.464 4.7 4.464H27.96c2.518 0 4.562-1.98 4.701-4.464a5.728 5.728 0 0 1-4.701 2.464z"/><path d="M27.96 1.375h-.682V1a1 1 0 1 0-2 0v.375h-1.837V1a1 1 0 0 0-2 0v.375h-1.837V1a1 1 0 1 0-2 0v.375h-1.837V1a1 1 0 0 0-2 0v.375H11.93V1a1 1 0 0 0-2 0v.375H8.094V1a1 1 0 0 0-2 0v.375h-.682A4.731 4.731 0 0 0 .687 6.101v19.547a4.733 4.733 0 0 0 4.727 4.727H27.96a4.733 4.733 0 0 0 4.728-4.727V6.101a4.733 4.733 0 0 0-4.728-4.726zM25.78 1a.5.5 0 0 1 1 0v6.482a.5.5 0 0 1-1 0V1zm-3.837 0a.5.5 0 0 1 1 0v6.482a.5.5 0 0 1-1 0V1zm-3.837 0a.5.5 0 0 1 1 0v6.482a.5.5 0 0 1-1 0V1zm-3.837 0a.5.5 0 0 1 1 0v6.482a.5.5 0 0 1-1 0V1zm-3.837 0a.5.5 0 0 1 1 0v6.482a.5.5 0 0 1-1 0V1zM6.595 1a.5.5 0 0 1 1 0v6.482a.5.5 0 0 1-1 0V1zm23.684 24.648a2.32 2.32 0 0 1-2.318 2.317H5.414a2.32 2.32 0 0 1-2.318-2.317V6.101a2.32 2.32 0 0 1 2.318-2.318h.682v2.513a1.55 1.55 0 0 0-.56 1.187 1.56 1.56 0 0 0 3.12 0c0-.478-.221-.9-.56-1.187V3.783h1.837v2.513a1.55 1.55 0 0 0-.56 1.187 1.56 1.56 0 0 0 3.12 0c0-.478-.221-.9-.56-1.187V3.783h1.837v2.513a1.55 1.55 0 0 0-.56 1.187 1.56 1.56 0 0 0 3.12 0c0-.478-.221-.9-.56-1.187V3.783h1.837v2.513a1.55 1.55 0 0 0-.56 1.187 1.561 1.561 0 0 0 3.121 0c0-.478-.222-.9-.561-1.187V3.783h1.837v2.513a1.55 1.55 0 0 0-.56 1.187 1.56 1.56 0 0 0 3.12 0c0-.478-.221-.9-.56-1.187V3.783h1.837v2.513a1.55 1.55 0 0 0-.56 1.187 1.56 1.56 0 0 0 3.121 0c0-.478-.221-.9-.561-1.187V3.783h.682a2.32 2.32 0 0 1 2.317 2.318l-.001 19.547z"/><path d="m22.71 13.307-7.214 7.854-5.045-3.735a1.499 1.499 0 1 0-1.785 2.411l6.129 4.539a1.495 1.495 0 0 0 1.997-.19l8.127-8.849a1.497 1.497 0 0 0-.09-2.119 1.5 1.5 0 0 0-2.119.089z"/></svg>