<?xml version="1.0" encoding="iso-8859-1"?>
<!-- Generator: Adobe Illustrator 16.0.0, SVG Export Plug-In . SVG Version: 6.00 Build 0)  -->
<!DOCTYPE svg PUBLIC "-//W3C//DTD SVG 1.1//EN" "http://www.w3.org/Graphics/SVG/1.1/DTD/svg11.dtd">
<svg version="1.1" id="Capa_1" xmlns="http://www.w3.org/2000/svg" xmlns:xlink="http://www.w3.org/1999/xlink" x="0px" y="0px"
	 width="33.375px" height="33.375px" viewBox="0 0 33.375 33.375" style="enable-background:new 0 0 33.375 33.375;"
	 xml:space="preserve">
<g>
	<g>
		<path d="M27.96,31.375H5.414c-1.945,0-3.664-0.979-4.7-2.464c0.14,2.481,2.184,4.464,4.7,4.464H27.96
			c2.518,0,4.562-1.98,4.701-4.464C31.625,30.396,29.906,31.375,27.96,31.375z"/>
		<path d="M27.96,1.375h-0.682V1c0-0.552-0.447-1-1-1c-0.552,0-1,0.448-1,1v0.375h-1.837V1c0-0.552-0.448-1-1-1s-1,0.448-1,1v0.375
			h-1.837V1c0-0.552-0.447-1-1-1c-0.552,0-1,0.448-1,1v0.375h-1.837V1c0-0.552-0.448-1-1-1c-0.552,0-1,0.448-1,1v0.375h-1.837V1
			c0-0.552-0.448-1-1-1c-0.552,0-1,0.448-1,1v0.375H8.094V1c0-0.552-0.448-1-1-1c-0.552,0-1,0.448-1,1v0.375H5.412
			c-2.605,0-4.725,2.12-4.725,4.726v19.547c0,2.605,2.12,4.727,4.727,4.727H27.96c2.606,0,4.728-2.12,4.728-4.727V6.101
			C32.687,3.495,30.567,1.375,27.96,1.375z M25.78,1c0-0.276,0.224-0.5,0.5-0.5s0.5,0.224,0.5,0.5v6.482c0,0.276-0.224,0.5-0.5,0.5
			s-0.5-0.224-0.5-0.5V1z M21.943,1c0-0.276,0.225-0.5,0.5-0.5c0.276,0,0.5,0.224,0.5,0.5v6.482c0,0.276-0.224,0.5-0.5,0.5
			c-0.275,0-0.5-0.224-0.5-0.5V1z M18.106,1c0-0.276,0.224-0.5,0.5-0.5s0.5,0.224,0.5,0.5v6.482c0,0.276-0.224,0.5-0.5,0.5
			s-0.5-0.224-0.5-0.5V1z M14.269,1c0-0.276,0.224-0.5,0.5-0.5s0.5,0.224,0.5,0.5v6.482c0,0.276-0.224,0.5-0.5,0.5
			s-0.5-0.224-0.5-0.5V1z M10.432,1c0-0.276,0.224-0.5,0.5-0.5s0.5,0.224,0.5,0.5v6.482c0,0.276-0.224,0.5-0.5,0.5
			s-0.5-0.224-0.5-0.5V1z M6.595,1c0-0.276,0.224-0.5,0.5-0.5c0.276,0,0.5,0.224,0.5,0.5v6.482c0,0.276-0.224,0.5-0.5,0.5
			c-0.276,0-0.5-0.224-0.5-0.5V1z M30.279,25.648c0,1.277-1.04,2.317-2.318,2.317H5.414c-1.278,0-2.318-1.04-2.318-2.317V6.101
			c0-1.278,1.04-2.318,2.318-2.318h0.682v2.513c-0.339,0.286-0.56,0.709-0.56,1.187c0,0.86,0.699,1.56,1.56,1.56
			c0.861,0,1.56-0.699,1.56-1.56c0-0.478-0.221-0.9-0.56-1.187V3.783h1.837v2.513c-0.339,0.286-0.56,0.709-0.56,1.187
			c0,0.86,0.699,1.56,1.56,1.56c0.861,0,1.56-0.699,1.56-1.56c0-0.478-0.221-0.9-0.56-1.187V3.783h1.837v2.513
			c-0.339,0.286-0.56,0.709-0.56,1.187c0,0.86,0.699,1.56,1.56,1.56s1.56-0.699,1.56-1.56c0-0.478-0.221-0.9-0.56-1.187V3.783h1.837
			v2.513c-0.339,0.286-0.56,0.709-0.56,1.187c0,0.86,0.699,1.56,1.56,1.56s1.561-0.699,1.561-1.56c0-0.478-0.222-0.9-0.561-1.187
			V3.783h1.837v2.513c-0.339,0.286-0.56,0.709-0.56,1.187c0,0.86,0.699,1.56,1.56,1.56c0.861,0,1.56-0.699,1.56-1.56
			c0-0.478-0.221-0.9-0.56-1.187V3.783h1.837v2.513c-0.339,0.286-0.56,0.709-0.56,1.187c0,0.86,0.698,1.56,1.56,1.56
			s1.561-0.699,1.561-1.56c0-0.478-0.221-0.9-0.561-1.187V3.783h0.682c1.277,0,2.317,1.04,2.317,2.318L30.279,25.648L30.279,25.648z
			"/>
		<path d="M22.71,13.307l-7.214,7.854l-5.045-3.735c-0.666-0.494-1.604-0.354-2.098,0.312c-0.493,0.666-0.354,1.605,0.313,2.099
			l6.129,4.539c0.268,0.198,0.58,0.295,0.892,0.295c0.407,0,0.812-0.165,1.105-0.485l8.127-8.849c0.562-0.61,0.521-1.559-0.09-2.119
			C24.221,12.658,23.272,12.696,22.71,13.307z"/>
	</g>
</g>
<g>
</g>
<g>
</g>
<g>
</g>
<g>
</g>
<g>
</g>
<g>
</g>
<g>
</g>
<g>
</g>
<g>
</g>
<g>
</g>
<g>
</g>
<g>
</g>
<g>
</g>
<g>
</g>
<g>
</g>
</svg>
