<?xml version="1.0" encoding="iso-8859-1"?>
<!-- Generator: Adobe Illustrator 19.0.0, SVG Export Plug-In . SVG Version: 6.00 Build 0)  -->
<svg version="1.1" id="Layer_1" xmlns="http://www.w3.org/2000/svg" xmlns:xlink="http://www.w3.org/1999/xlink" x="0px" y="0px"
	 viewBox="0 0 512 512" style="enable-background:new 0 0 512 512;" xml:space="preserve">
<g>
	<g>
		<path d="M428.912,475.515H317.444c-55.021,0-99.361-45.023-99.361-100.046v-4.544h51.662c10.075,0,17.659-7.85,17.659-17.925
			v-86.228c28.616-20.17,47.43-53.463,47.43-90.872V98.064c0-10.075-8.579-17.798-18.653-17.798h-38.506V18.242
			C277.674,8.168,269.507,0,259.432,0S241.19,8.168,241.19,18.242v62.024h-83.914V18.242C157.275,8.168,149.107,0,139.033,0
			s-18.242,8.168-18.242,18.242v62.024H82.653c-10.075,0-17.807,7.724-17.807,17.798v77.837c0,37.122,18.212,70.195,46.214,90.409
			v86.691c0,10.075,7.952,17.925,18.027,17.925h52.51v4.544c0,75.139,60.707,136.53,135.845,136.53h111.469
			c10.075,0,18.242-8.168,18.242-18.242S438.987,475.515,428.912,475.515z"/>
	</g>
</g>
<g>
</g>
<g>
</g>
<g>
</g>
<g>
</g>
<g>
</g>
<g>
</g>
<g>
</g>
<g>
</g>
<g>
</g>
<g>
</g>
<g>
</g>
<g>
</g>
<g>
</g>
<g>
</g>
<g>
</g>
</svg>
