<?xml version="1.0" encoding="iso-8859-1"?>
<!-- Generator: Adobe Illustrator 19.0.0, SVG Export Plug-In . SVG Version: 6.00 Build 0)  -->
<svg version="1.1" id="Layer_1" xmlns="http://www.w3.org/2000/svg" xmlns:xlink="http://www.w3.org/1999/xlink" x="0px" y="0px"
	 viewBox="0 0 511.739 511.739" style="enable-background:new 0 0 511.739 511.739;" xml:space="preserve">
<g>
	<g>
		<g>
			<path d="M213.205,2.519c-5.606,0.683-11.298,1.536-17.067,2.492v148.326h17.067V2.519z"/>
			<path d="M281.471,54.275c-8.09,3.302-16.708,5.197-25.6,5.197c-8.9,0-17.51-1.894-25.6-5.188v99.055h51.2V54.275z"/>
			<path d="M281.471,35.326V1.056c-17.229-1.357-34.082-1.408-51.2-0.145v34.415C245.896,44.354,265.821,44.354,281.471,35.326z"/>
			<path d="M315.605,5.267c-5.777-0.973-11.469-1.826-17.067-2.534v150.605h17.067V5.267z"/>
			<path d="M475.03,121.501l-97.314-90.854c-3.652-3.644-7.68-6.929-11.947-9.754c-7.825-5.214-16.247-8.849-25.045-10.786
				c-2.756-0.606-5.35-1.041-8.055-1.596v144.828c4.719,0,8.533,3.823,8.533,8.533v85.333h34.133V137.757l45.653,39.125
				c3.379,2.901,8.431,2.722,11.58-0.444l42.667-42.667c1.638-1.638,2.543-3.866,2.5-6.178
				C477.692,125.281,476.719,123.08,475.03,121.501z"/>
			<path d="M378.692,286.322c-1.613-7.245-2.441-14.635-2.884-22.05h-43.136c-4.71,0-8.533-3.823-8.533-8.533v-85.333h-8.533v8.533
				c0,4.71-3.823,8.533-8.533,8.533s-8.533-3.823-8.533-8.533v-8.533h-8.533h-68.267h-8.533v8.533c0,4.71-3.823,8.533-8.533,8.533
				s-8.533-3.823-8.533-8.533v-8.533h-8.533v85.333c0,4.71-3.823,8.533-8.533,8.533H136.14c-0.273,6.639-0.87,13.252-2.048,19.627
				L93.917,475.856c-0.887,4.241,1.545,8.474,5.658,9.847l76.8,25.6c2.278,0.751,4.787,0.512,6.886-0.657
				c2.099-1.186,3.601-3.2,4.13-5.547l34.935-153.719c3.669-16.119,17.766-27.375,34.295-27.375
				c15.812,0,29.773,10.658,33.929,25.916L332.97,505.45c0.614,2.261,2.142,4.173,4.207,5.282c1.254,0.666,2.637,1.007,4.028,1.007
				c0.905,0,1.818-0.145,2.697-0.435l76.8-25.6c4.232-1.417,6.664-5.854,5.581-10.18L378.692,286.322z M281.471,221.605h-51.2
				c-4.71,0-8.533-3.823-8.533-8.533c0-4.71,3.823-8.533,8.533-8.533h51.2c4.71,0,8.533,3.823,8.533,8.533
				C290.005,217.783,286.182,221.605,281.471,221.605z"/>
			<path d="M136.403,247.206h34.133v-85.333c0-4.71,3.823-8.533,8.533-8.533V8.23c-2.611,0.538-5.12,0.947-7.782,1.536
				c-9.011,1.98-17.724,5.811-25.899,11.392c-3.917,2.679-7.612,5.743-10.786,8.909l-97.886,91.435
				c-1.715,1.596-2.688,3.823-2.714,6.153c-0.017,2.338,0.913,4.582,2.586,6.204l43.895,42.607
				c3.191,3.098,8.218,3.217,11.563,0.307l44.356-38.775V247.206z"/>
		</g>
	</g>
</g>
<g>
</g>
<g>
</g>
<g>
</g>
<g>
</g>
<g>
</g>
<g>
</g>
<g>
</g>
<g>
</g>
<g>
</g>
<g>
</g>
<g>
</g>
<g>
</g>
<g>
</g>
<g>
</g>
<g>
</g>
</svg>
