<svg xmlns="http://www.w3.org/2000/svg" height="511pt" width="511pt" viewBox="0 -36 511.999 511"><path d="M505.43 29.078C503.73 27.91 462.594.5 361.832.5c-100.766 0-141.906 27.41-143.61 28.578a15.124 15.124 0 0 0-6.566 12.469v30.035c-22.988 4.555-53.66 13.676-91.703 31.523C28.73 145.906 3.13 188.195 2.082 189.973a15.13 15.13 0 0 0-.652 14.082l61.449 130.968c30.203 64.375 94.492 103.575 162.914 103.575 15.156 0 30.52-1.922 45.754-5.922.047-.012.094-.024.14-.04h.004a15.16 15.16 0 0 0 4.813-2.284c26.785-19.149 46.93-44.508 59.625-72.903a180.484 180.484 0 0 0 22.96 5.801c.454.086.907.148 1.368.187h.004a14.929 14.929 0 0 0 4.102-.188C449.995 347.532 512 273.08 512 186.216V41.547c0-4.985-2.457-9.649-6.57-12.469zM90.25 322.18 32.656 199.422c10.04-11.902 38.196-39.879 100.137-68.942 61.953-29.062 101.457-32.832 117.023-32.94l57.594 122.757c30.3 64.586 10.82 141.418-46.238 183.816-69.078 16.778-140.621-17.347-170.922-81.933zm391.512-135.965c0 71.344-50.27 132.625-119.934 146.77a149.895 149.895 0 0 1-15.71-4.087c7.265-28.152 7.737-58.062.726-87.113 18.746-5.2 39.695-.457 54.402 14.25 2.953 2.953 6.824 4.43 10.691 4.43s7.739-1.477 10.692-4.43c5.902-5.902 5.902-15.472 0-21.379-23.063-23.058-56.07-30.258-85.344-21.593a182.349 182.349 0 0 0-2.504-5.61l-24.515-52.258c12.21-.101 23.68-4.894 32.324-13.543 5.902-5.902 5.902-15.476 0-21.379-5.902-5.902-15.477-5.902-21.38 0a15.92 15.92 0 0 1-11.331 4.696c-4.277 0-8.3-1.668-11.328-4.696a15.092 15.092 0 0 0-6.461-3.824l-18.754-39.965a15.116 15.116 0 0 0-11.238-8.5c-.735-.12-7.54-1.148-20.207-.418V50.59c14.023-6.473 51.332-19.856 119.941-19.856 68.422 0 105.79 13.371 119.93 19.883zm0 0"/><path d="M420.219 155.203c12.36 0 23.976-4.808 32.715-13.547 5.902-5.906 5.902-15.476 0-21.383-5.907-5.902-15.477-5.902-21.383 0a15.918 15.918 0 0 1-11.328 4.696 15.92 15.92 0 0 1-11.332-4.696c-5.903-5.902-15.477-5.902-21.383 0-5.903 5.907-5.903 15.477 0 21.383 8.738 8.739 20.355 13.547 32.71 13.547zM167.078 248.848c2.84-7.852-1.226-16.52-9.078-19.356-11.625-4.199-24.184-3.62-35.371 1.63s-19.66 14.538-23.86 26.16c-2.835 7.85 1.231 16.519 9.083 19.355 1.695.613 3.43.902 5.136.902 6.188 0 11.996-3.828 14.219-9.984a15.931 15.931 0 0 1 8.266-9.063 15.93 15.93 0 0 1 12.25-.562c7.851 2.836 16.52-1.227 19.355-9.082zM207.742 229.773c1.7.61 3.43.903 5.137.903 6.187 0 11.996-3.828 14.219-9.985a15.92 15.92 0 0 1 8.265-9.062 15.894 15.894 0 0 1 12.25-.563c7.856 2.836 16.52-1.23 19.36-9.082 2.836-7.855-1.23-16.52-9.082-19.355-23.993-8.668-50.563 3.797-59.23 27.785-2.837 7.856 1.23 16.52 9.081 19.36zM274.355 289.063c2.836-7.852-1.23-16.516-9.082-19.356-7.851-2.84-16.52 1.227-19.355 9.082-10.45 28.91-42.473 43.93-71.379 33.488-7.855-2.84-16.52 1.227-19.355 9.078-2.84 7.856 1.226 16.52 9.078 19.36a85.636 85.636 0 0 0 29.136 5.12c35.207 0 68.32-21.8 80.957-56.772zm0 0"/></svg>