<svg xmlns="http://www.w3.org/2000/svg" viewBox="0 0 511.739 511.739" style="enable-background:new 0 0 511.739 511.739" xml:space="preserve"><path d="M213.205 2.519c-5.606.683-11.298 1.536-17.067 2.492v148.326h17.067V2.519zM281.471 54.275c-8.09 3.302-16.708 5.197-25.6 5.197-8.9 0-17.51-1.894-25.6-5.188v99.055h51.2V54.275zM281.471 35.326V1.056c-17.229-1.357-34.082-1.408-51.2-.145v34.415c15.625 9.028 35.55 9.028 51.2 0zM315.605 5.267a420.781 420.781 0 0 0-17.067-2.534v150.605h17.067V5.267zM475.03 121.501l-97.314-90.854a77.672 77.672 0 0 0-11.947-9.754c-7.825-5.214-16.247-8.849-25.045-10.786-2.756-.606-5.35-1.041-8.055-1.596v144.828a8.53 8.53 0 0 1 8.533 8.533v85.333h34.133V137.757l45.653 39.125c3.379 2.901 8.431 2.722 11.58-.444l42.667-42.667a8.515 8.515 0 0 0 2.5-6.178 8.557 8.557 0 0 0-2.705-6.092z"/><path d="M378.692 286.322c-1.613-7.245-2.441-14.635-2.884-22.05h-43.136a8.536 8.536 0 0 1-8.533-8.533v-85.333h-8.533v8.533c0 4.71-3.823 8.533-8.533 8.533s-8.533-3.823-8.533-8.533v-8.533h-85.333v8.533c0 4.71-3.823 8.533-8.533 8.533s-8.533-3.823-8.533-8.533v-8.533h-8.533v85.333a8.536 8.536 0 0 1-8.533 8.533H136.14c-.273 6.639-.87 13.252-2.048 19.627L93.917 475.856a8.54 8.54 0 0 0 5.658 9.847l76.8 25.6a8.633 8.633 0 0 0 6.886-.657 8.53 8.53 0 0 0 4.13-5.547l34.935-153.719c3.669-16.119 17.766-27.375 34.295-27.375 15.812 0 29.773 10.658 33.929 25.916l42.42 155.529a8.551 8.551 0 0 0 4.207 5.282 8.586 8.586 0 0 0 6.725.572l76.8-25.6a8.55 8.55 0 0 0 5.581-10.18l-47.591-189.202zm-97.221-64.717h-51.2a8.536 8.536 0 0 1-8.533-8.533 8.536 8.536 0 0 1 8.533-8.533h51.2a8.536 8.536 0 0 1 8.533 8.533c.001 4.711-3.822 8.533-8.533 8.533z"/><path d="M136.403 247.206h34.133v-85.333a8.536 8.536 0 0 1 8.533-8.533V8.23c-2.611.538-5.12.947-7.782 1.536-9.011 1.98-17.724 5.811-25.899 11.392-3.917 2.679-7.612 5.743-10.786 8.909l-97.886 91.435a8.531 8.531 0 0 0-2.714 6.153 8.549 8.549 0 0 0 2.586 6.204l43.895 42.607c3.191 3.098 8.218 3.217 11.563.307l44.356-38.775v109.208z"/></svg>