<svg width="800px" height="800px" viewBox="0 0 1920 1920" xmlns="http://www.w3.org/2000/svg"><path d="M735.385 336.094c218.24 0 395.977 177.624 395.977 395.976v113.137c0 121.96-56.568 229.78-143.57 302.526 94.13 13.916 187.354 34.959 278.315 64.6 122.414 39.825 204.664 155.676 204.664 288.159v200.364l-26.814 16.63c-148.434 92.32-392.017 202.515-708.572 202.515-174.795 0-439.76-35.186-708.685-202.514L0 1700.856v-189.39c0-140.629 89.264-263.042 221.973-304.79 85.418-26.7 172.533-46.498 260.327-59.509-86.55-72.746-142.891-180.339-142.891-301.96V732.07c0-218.352 177.623-395.976 395.976-395.976ZM1183.405"/></svg>