<svg xmlns="http://www.w3.org/2000/svg" width="612" height="612"><path d="M84.465,204.836l-41.937,41.939c-5.415,5.411-5.415,14.192,0,19.618L146.774,370.64L17.034,500.385 c-22.71,22.712-22.714,59.531,0,82.247l12.336,12.332c22.714,22.714,59.533,22.71,82.243,0l129.744-129.739l104.249,104.249 c5.424,5.413,14.207,5.413,19.62,0l41.941-41.941L84.465,204.836z"/><path d="M607.935,307.144l-81.902-81.902l-112.088,97.206l97.197-112.103L409.963,109.164L282.114,220.032L392.978,92.182 L304.856,4.066c-5.413-5.417-14.194-5.417-19.618,0L116.343,172.958l322.702,322.696l168.89-168.892 C613.356,321.34,613.356,312.56,607.935,307.144z"/></svg>