<svg xmlns="http://www.w3.org/2000/svg" viewBox="0 0 447.998 447.998" style="enable-background:new 0 0 447.998 447.998" xml:space="preserve"><path d="M218.188 143.998c-1.612 6.249-31.043 105.119-31.043 111.574 0 17.028 13.828 30.858 30.857 30.858 17.068 0 30.858-13.829 30.858-30.858-.001-6.725-28.991-105.066-30.672-111.574z"/><path d="M218.16 63.998c-105.868 0-192 86.131-192 192 0 105.868 86.132 192 192 192 105.869 0 192-86.132 192-192 0-105.869-86.131-192-192-192zm0 320c-70.579 0-128-57.421-128-128s57.421-128 128-128 128 57.421 128 128-57.42 128-128 128zM186.188 0h64v32h-64zM353.953 74.998 376.58 52.37l45.254 45.253-22.627 22.628z"/></svg>