<?xml version="1.0" encoding="iso-8859-1"?>
<!-- Generator: Adobe Illustrator 19.0.0, SVG Export Plug-In . SVG Version: 6.00 Build 0)  -->
<svg version="1.1" id="Capa_1" xmlns="http://www.w3.org/2000/svg" xmlns:xlink="http://www.w3.org/1999/xlink" x="0px" y="0px"
	 viewBox="0 0 447.998 447.998" style="enable-background:new 0 0 447.998 447.998;" xml:space="preserve">
<g>
	<g>
		<path d="M218.188,143.998c-1.612,6.249-31.043,105.119-31.043,111.574c0,17.028,13.828,30.858,30.857,30.858
			c17.068,0,30.858-13.829,30.858-30.858C248.859,248.847,219.869,150.506,218.188,143.998z"/>
	</g>
</g>
<g>
	<g>
		<path d="M218.16,63.998c-105.868,0-192,86.131-192,192c0,105.868,86.132,192,192,192c105.869,0,192-86.132,192-192
			C410.16,150.129,324.029,63.998,218.16,63.998z M218.16,383.998c-70.579,0-128-57.421-128-128s57.421-128,128-128
			s128,57.421,128,128S288.74,383.998,218.16,383.998z"/>
	</g>
</g>
<g>
	<g>
		<rect x="186.188" width="64" height="32"/>
	</g>
</g>
<g>
	<g>
		<rect x="371.897" y="54.31" transform="matrix(0.7071 -0.7071 0.7071 0.7071 52.582 299.5637)" width="32" height="63.999"/>
	</g>
</g>
<g>
</g>
<g>
</g>
<g>
</g>
<g>
</g>
<g>
</g>
<g>
</g>
<g>
</g>
<g>
</g>
<g>
</g>
<g>
</g>
<g>
</g>
<g>
</g>
<g>
</g>
<g>
</g>
<g>
</g>
</svg>
